<svg width="24" height="24" viewBox="0 0 24 24" fill="none" xmlns="http://www.w3.org/2000/svg">
<path d="M4.025 14.8504C3.75833 14.6504 3.62933 14.3881 3.638 14.0634C3.64666 13.7387 3.784 13.4761 4.05 13.2754C4.23333 13.1421 4.43333 13.0754 4.65 13.0754C4.86666 13.0754 5.06666 13.1421 5.25 13.2754L12 18.5004L18.75 13.2754C18.9333 13.1421 19.1333 13.0754 19.35 13.0754C19.5667 13.0754 19.7667 13.1421 19.95 13.2754C20.2167 13.4754 20.3543 13.7377 20.363 14.0624C20.3717 14.3871 20.2423 14.6497 19.975 14.8504L13.225 20.1004C12.8583 20.3837 12.45 20.5254 12 20.5254C11.55 20.5254 11.1417 20.3837 10.775 20.1004L4.025 14.8504ZM10.775 15.0504L5.025 10.5754C4.50833 10.1754 4.25 9.65039 4.25 9.00039C4.25 8.35039 4.50833 7.82539 5.025 7.42539L10.775 2.95039C11.1417 2.66706 11.55 2.52539 12 2.52539C12.45 2.52539 12.8583 2.66706 13.225 2.95039L18.975 7.42539C19.4917 7.82539 19.75 8.35039 19.75 9.00039C19.75 9.65039 19.4917 10.1754 18.975 10.5754L13.225 15.0504C12.8583 15.3337 12.45 15.4754 12 15.4754C11.55 15.4754 11.1417 15.3337 10.775 15.0504ZM12 13.4504L17.75 9.00039L12 4.55039L6.25 9.00039L12 13.4504Z" fill="black"/>
</svg>
