<svg width="60" height="30" viewBox="0 0 60 30" fill="none" xmlns="http://www.w3.org/2000/svg">
<path d="M0 30C3.44416e-07 26.0603 0.775974 22.1593 2.28362 18.5195C3.79126 14.8797 6.00104 11.5725 8.7868 8.78679C11.5726 6.00103 14.8797 3.79125 18.5195 2.28361C22.1593 0.77597 26.0604 -1.45591e-06 30 0C33.9397 1.45591e-06 37.8407 0.775976 41.4805 2.28362C45.1203 3.79126 48.4275 6.00105 51.2132 8.78681C53.999 11.5726 56.2088 14.8797 57.7164 18.5195C59.224 22.1593 60 26.0604 60 30L54 30C54 26.8483 53.3792 23.7274 52.1731 20.8156C50.967 17.9038 49.1992 15.2581 46.9706 13.0294C44.742 10.8008 42.0962 9.03301 39.1844 7.8269C36.2726 6.62078 33.1517 6 30 6C26.8483 6 23.7274 6.62078 20.8156 7.82689C17.9038 9.033 15.258 10.8008 13.0294 13.0294C10.8008 15.258 9.03301 17.9038 7.82689 20.8156C6.62078 23.7274 6 26.8483 6 30H0Z" fill="#BBBBBB"/>
<path d="M0 30C5.18718e-07 24.0666 1.75947 18.2664 5.05591 13.3329C8.35236 8.39942 13.0377 4.55424 18.5195 2.28361C24.0013 0.0129835 30.0333 -0.581115 35.8527 0.576443C41.6721 1.734 47.0176 4.59123 51.2132 8.7868L46.9706 13.0294C43.6141 9.67298 39.3377 7.3872 34.6822 6.46115C30.0266 5.53511 25.201 6.01039 20.8156 7.82689C16.4302 9.64339 12.6819 12.7195 10.0447 16.6663C7.40758 20.6131 6 25.2532 6 30H0Z" fill="#5B5B5B"/>
<path d="M20.7074 22.0597C20.6364 21.8295 20.5384 21.6236 20.4134 21.4418C20.2912 21.2571 20.1435 21.0994 19.9702 20.9688C19.7997 20.8381 19.6037 20.7401 19.3821 20.6747C19.1605 20.6065 18.919 20.5724 18.6577 20.5724C18.1889 20.5724 17.7713 20.6903 17.4048 20.9261C17.0384 21.1619 16.75 21.5085 16.5398 21.9659C16.3324 22.4205 16.2287 22.9744 16.2287 23.6278C16.2287 24.2869 16.3324 24.8452 16.5398 25.3026C16.7472 25.7599 17.0355 26.108 17.4048 26.3466C17.7741 26.5824 18.2031 26.7003 18.6918 26.7003C19.1349 26.7003 19.5185 26.6151 19.8423 26.4446C20.169 26.2741 20.4205 26.0327 20.5966 25.7202C20.7727 25.4048 20.8608 25.0355 20.8608 24.6122L21.2188 24.6676H18.8494V23.4318H22.3906V24.4801C22.3906 25.2273 22.2315 25.8736 21.9134 26.419C21.5952 26.9645 21.1577 27.3849 20.6009 27.6804C20.044 27.973 19.4048 28.1193 18.6832 28.1193C17.8793 28.1193 17.1733 27.9389 16.5653 27.5781C15.9602 27.2145 15.4872 26.6989 15.1463 26.0312C14.8082 25.3608 14.6392 24.5653 14.6392 23.6449C14.6392 22.9403 14.7386 22.3111 14.9375 21.7571C15.1392 21.2031 15.4205 20.733 15.7812 20.3466C16.142 19.9574 16.5653 19.6619 17.0511 19.4602C17.5369 19.2557 18.0653 19.1534 18.6364 19.1534C19.1193 19.1534 19.5696 19.2244 19.9872 19.3665C20.4048 19.5057 20.7756 19.7045 21.0994 19.9631C21.4261 20.2216 21.6946 20.5284 21.9048 20.8835C22.1151 21.2386 22.2528 21.6307 22.3182 22.0597H20.7074ZM26.7063 28.1278C26.0671 28.1278 25.5131 27.9872 25.0444 27.706C24.5756 27.4247 24.212 27.0312 23.9535 26.5256C23.6978 26.0199 23.57 25.429 23.57 24.7528C23.57 24.0767 23.6978 23.4844 23.9535 22.9759C24.212 22.4673 24.5756 22.0724 25.0444 21.7912C25.5131 21.5099 26.0671 21.3693 26.7063 21.3693C27.3455 21.3693 27.8995 21.5099 28.3683 21.7912C28.837 22.0724 29.1992 22.4673 29.4549 22.9759C29.7134 23.4844 29.8427 24.0767 29.8427 24.7528C29.8427 25.429 29.7134 26.0199 29.4549 26.5256C29.1992 27.0312 28.837 27.4247 28.3683 27.706C27.8995 27.9872 27.3455 28.1278 26.7063 28.1278ZM26.7148 26.892C27.0614 26.892 27.3512 26.7969 27.5842 26.6065C27.8171 26.4134 27.9904 26.1548 28.104 25.831C28.2205 25.5071 28.2788 25.1463 28.2788 24.7486C28.2788 24.348 28.2205 23.9858 28.104 23.6619C27.9904 23.3352 27.8171 23.0753 27.5842 22.8821C27.3512 22.6889 27.0614 22.5923 26.7148 22.5923C26.3597 22.5923 26.0643 22.6889 25.8285 22.8821C25.5955 23.0753 25.4208 23.3352 25.3043 23.6619C25.1907 23.9858 25.1339 24.348 25.1339 24.7486C25.1339 25.1463 25.1907 25.5071 25.3043 25.831C25.4208 26.1548 25.5955 26.4134 25.8285 26.6065C26.0643 26.7969 26.3597 26.892 26.7148 26.892ZM34.0071 28.1278C33.3679 28.1278 32.8139 27.9872 32.3452 27.706C31.8764 27.4247 31.5128 27.0312 31.2543 26.5256C30.9986 26.0199 30.8707 25.429 30.8707 24.7528C30.8707 24.0767 30.9986 23.4844 31.2543 22.9759C31.5128 22.4673 31.8764 22.0724 32.3452 21.7912C32.8139 21.5099 33.3679 21.3693 34.0071 21.3693C34.6463 21.3693 35.2003 21.5099 35.669 21.7912C36.1378 22.0724 36.5 22.4673 36.7557 22.9759C37.0142 23.4844 37.1435 24.0767 37.1435 24.7528C37.1435 25.429 37.0142 26.0199 36.7557 26.5256C36.5 27.0312 36.1378 27.4247 35.669 27.706C35.2003 27.9872 34.6463 28.1278 34.0071 28.1278ZM34.0156 26.892C34.3622 26.892 34.652 26.7969 34.8849 26.6065C35.1179 26.4134 35.2912 26.1548 35.4048 25.831C35.5213 25.5071 35.5795 25.1463 35.5795 24.7486C35.5795 24.348 35.5213 23.9858 35.4048 23.6619C35.2912 23.3352 35.1179 23.0753 34.8849 22.8821C34.652 22.6889 34.3622 22.5923 34.0156 22.5923C33.6605 22.5923 33.3651 22.6889 33.1293 22.8821C32.8963 23.0753 32.7216 23.3352 32.6051 23.6619C32.4915 23.9858 32.4347 24.348 32.4347 24.7486C32.4347 25.1463 32.4915 25.5071 32.6051 25.831C32.7216 26.1548 32.8963 26.4134 33.1293 26.6065C33.3651 26.7969 33.6605 26.892 34.0156 26.892ZM40.8817 28.1151C40.3675 28.1151 39.9073 27.983 39.5011 27.7188C39.0948 27.4545 38.7738 27.071 38.538 26.5682C38.3022 26.0653 38.1843 25.4545 38.1843 24.7358C38.1843 24.0085 38.3036 23.3949 38.5423 22.8949C38.7837 22.392 39.109 22.0128 39.5181 21.7571C39.9272 21.4986 40.3832 21.3693 40.886 21.3693C41.2695 21.3693 41.5849 21.4347 41.832 21.5653C42.0792 21.6932 42.2752 21.848 42.4201 22.0298C42.565 22.2088 42.6772 22.3778 42.7567 22.5369H42.8207V19.2727H44.3675V28H42.8505V26.9688H42.7567C42.6772 27.1278 42.5621 27.2969 42.4116 27.4759C42.261 27.652 42.0621 27.8026 41.815 27.9276C41.5678 28.0526 41.2567 28.1151 40.8817 28.1151ZM41.3121 26.8494C41.6388 26.8494 41.9173 26.7614 42.1474 26.5852C42.3775 26.4062 42.5522 26.1577 42.6715 25.8395C42.7908 25.5213 42.8505 25.1506 42.8505 24.7273C42.8505 24.304 42.7908 23.9361 42.6715 23.6236C42.555 23.3111 42.3817 23.0682 42.1516 22.8949C41.9244 22.7216 41.6445 22.6349 41.3121 22.6349C40.9684 22.6349 40.6815 22.7244 40.4513 22.9034C40.2212 23.0824 40.0479 23.3295 39.9315 23.6449C39.815 23.9602 39.7567 24.321 39.7567 24.7273C39.7567 25.1364 39.815 25.5014 39.9315 25.8224C40.0508 26.1406 40.2255 26.392 40.4556 26.5767C40.6886 26.7585 40.9741 26.8494 41.3121 26.8494Z" fill="#121619"/>
</svg>
